<svg width="236" height="54" viewBox="0 0 236 54" fill="none" xmlns="http://www.w3.org/2000/svg">
<path d="M90.256 31.196C89.584 33.668 88.324 35.48 86.476 36.632C84.652 37.784 82.516 38.36 80.068 38.36C77.716 38.36 75.676 37.88 73.948 36.92C72.244 35.936 70.924 34.532 69.988 32.708C69.076 30.86 68.62 28.664 68.62 26.12C68.62 23.552 69.076 21.356 69.988 19.532C70.924 17.708 72.244 16.316 73.948 15.356C75.676 14.372 77.704 13.88 80.032 13.88C81.64 13.88 83.128 14.12 84.496 14.6C85.864 15.056 87.016 15.764 87.952 16.724C88.912 17.684 89.584 18.92 89.968 20.432L84.532 22.628C84.22 21.14 83.692 20.12 82.948 19.568C82.228 19.016 81.328 18.74 80.248 18.74C79.144 18.74 78.196 19.016 77.404 19.568C76.612 20.12 76 20.948 75.568 22.052C75.16 23.132 74.956 24.488 74.956 26.12C74.956 27.728 75.148 29.084 75.532 30.188C75.94 31.268 76.54 32.096 77.332 32.672C78.124 33.224 79.108 33.5 80.284 33.5C81.364 33.5 82.288 33.188 83.056 32.564C83.848 31.916 84.376 30.932 84.64 29.612L90.256 31.196ZM93.278 38V12.368H99.398V23.276C99.95 22.076 100.706 21.176 101.666 20.576C102.626 19.952 103.742 19.64 105.014 19.64C106.238 19.64 107.306 19.88 108.218 20.36C109.13 20.84 109.838 21.56 110.342 22.52C110.87 23.456 111.134 24.62 111.134 26.012V38H105.014V27.704C105.014 26.432 104.786 25.544 104.33 25.04C103.874 24.536 103.274 24.284 102.53 24.284C101.978 24.284 101.462 24.428 100.982 24.716C100.502 25.004 100.118 25.46 99.83 26.084C99.542 26.708 99.398 27.524 99.398 28.532V38H93.278ZM115.426 38V20H120.826L121.078 23.888C121.51 22.544 122.17 21.5 123.058 20.756C123.946 20.012 125.062 19.64 126.406 19.64C126.862 19.64 127.246 19.676 127.558 19.748C127.87 19.82 128.122 19.916 128.314 20.036L127.702 25.076C127.51 25.004 127.234 24.932 126.874 24.86C126.514 24.788 126.058 24.752 125.506 24.752C124.81 24.752 124.15 24.908 123.526 25.22C122.926 25.532 122.446 26 122.086 26.624C121.726 27.224 121.546 27.992 121.546 28.928V38H115.426ZM138.617 19.64C140.489 19.64 142.133 20.012 143.549 20.756C144.965 21.5 146.069 22.568 146.861 23.96C147.677 25.352 148.085 27.032 148.085 29C148.085 30.968 147.677 32.648 146.861 34.04C146.069 35.432 144.965 36.5 143.549 37.244C142.133 37.988 140.489 38.36 138.617 38.36C136.769 38.36 135.137 37.988 133.721 37.244C132.305 36.5 131.201 35.432 130.409 34.04C129.617 32.648 129.221 30.968 129.221 29C129.221 27.032 129.617 25.352 130.409 23.96C131.201 22.568 132.305 21.5 133.721 20.756C135.137 20.012 136.769 19.64 138.617 19.64ZM138.617 23.996C137.945 23.996 137.357 24.176 136.853 24.536C136.373 24.872 136.001 25.412 135.737 26.156C135.497 26.876 135.377 27.824 135.377 29C135.377 30.176 135.497 31.136 135.737 31.88C136.001 32.6 136.373 33.14 136.853 33.5C137.357 33.836 137.945 34.004 138.617 34.004C139.313 34.004 139.901 33.836 140.381 33.5C140.885 33.14 141.269 32.588 141.533 31.844C141.797 31.1 141.929 30.152 141.929 29C141.929 27.824 141.797 26.876 141.533 26.156C141.269 25.412 140.885 24.872 140.381 24.536C139.901 24.176 139.313 23.996 138.617 23.996ZM151.532 38V20H157.004L157.328 26.192L156.644 25.508C157.004 23.588 157.76 22.136 158.912 21.152C160.064 20.144 161.516 19.64 163.268 19.64C164.492 19.64 165.56 19.88 166.472 20.36C167.384 20.84 168.092 21.56 168.596 22.52C169.124 23.456 169.388 24.62 169.388 26.012V38H163.268V27.632C163.268 26.408 163.04 25.556 162.584 25.076C162.128 24.572 161.528 24.32 160.784 24.32C160.232 24.32 159.716 24.464 159.236 24.752C158.756 25.016 158.372 25.448 158.084 26.048C157.796 26.648 157.652 27.452 157.652 28.46V38H151.532ZM182.14 19.64C184.012 19.64 185.656 20.012 187.072 20.756C188.488 21.5 189.592 22.568 190.384 23.96C191.2 25.352 191.608 27.032 191.608 29C191.608 30.968 191.2 32.648 190.384 34.04C189.592 35.432 188.488 36.5 187.072 37.244C185.656 37.988 184.012 38.36 182.14 38.36C180.292 38.36 178.66 37.988 177.244 37.244C175.828 36.5 174.724 35.432 173.932 34.04C173.14 32.648 172.744 30.968 172.744 29C172.744 27.032 173.14 25.352 173.932 23.96C174.724 22.568 175.828 21.5 177.244 20.756C178.66 20.012 180.292 19.64 182.14 19.64ZM182.14 23.996C181.468 23.996 180.88 24.176 180.376 24.536C179.896 24.872 179.524 25.412 179.26 26.156C179.02 26.876 178.9 27.824 178.9 29C178.9 30.176 179.02 31.136 179.26 31.88C179.524 32.6 179.896 33.14 180.376 33.5C180.88 33.836 181.468 34.004 182.14 34.004C182.836 34.004 183.424 33.836 183.904 33.5C184.408 33.14 184.792 32.588 185.056 31.844C185.32 31.1 185.452 30.152 185.452 29C185.452 27.824 185.32 26.876 185.056 26.156C184.792 25.412 184.408 24.872 183.904 24.536C183.424 24.176 182.836 23.996 182.14 23.996ZM202.507 38.36C200.707 38.36 199.051 38.072 197.539 37.496C196.051 36.896 194.791 36.044 193.759 34.94L196.603 31.556C197.203 32.324 197.995 32.972 198.979 33.5C199.987 34.004 201.079 34.256 202.255 34.256C202.951 34.256 203.539 34.148 204.019 33.932C204.499 33.716 204.739 33.38 204.739 32.924C204.739 32.588 204.619 32.324 204.379 32.132C204.139 31.916 203.671 31.736 202.975 31.592L200.527 31.088C198.271 30.608 196.675 29.924 195.739 29.036C194.827 28.148 194.371 26.972 194.371 25.508C194.371 24.524 194.671 23.588 195.271 22.7C195.871 21.812 196.783 21.08 198.007 20.504C199.255 19.928 200.827 19.64 202.723 19.64C204.547 19.64 206.143 19.916 207.511 20.468C208.879 20.996 209.971 21.752 210.787 22.736L207.907 26.048C207.331 25.328 206.587 24.764 205.675 24.356C204.787 23.948 203.899 23.744 203.011 23.744C202.435 23.744 201.955 23.804 201.571 23.924C201.211 24.02 200.935 24.164 200.743 24.356C200.551 24.548 200.455 24.788 200.455 25.076C200.455 25.412 200.611 25.7 200.923 25.94C201.235 26.156 201.763 26.336 202.507 26.48L205.747 27.128C207.571 27.488 208.879 28.112 209.671 29C210.487 29.864 210.895 30.92 210.895 32.168C210.895 33.92 210.199 35.396 208.807 36.596C207.415 37.772 205.315 38.36 202.507 38.36ZM217.099 38.324C215.995 38.324 215.119 38.036 214.471 37.46C213.823 36.884 213.499 36.092 213.499 35.084C213.499 34.052 213.823 33.248 214.471 32.672C215.119 32.096 215.995 31.808 217.099 31.808C218.227 31.808 219.103 32.096 219.727 32.672C220.375 33.248 220.699 34.052 220.699 35.084C220.699 36.092 220.375 36.884 219.727 37.46C219.103 38.036 218.227 38.324 217.099 38.324Z" fill="black"/>
<path d="M7.22125 16.37L26.5 27.5221L45.7787 16.37M26.5 49.76V27.5M46.375 36.3333V18.6667C46.3742 17.8921 46.1698 17.1315 45.7821 16.4609C45.3945 15.7903 44.8374 15.2335 44.1667 14.8463L28.7083 6.01292C28.0369 5.62527 27.2753 5.4212 26.5 5.4212C25.7247 5.4212 24.9631 5.62527 24.2917 6.01292L8.83333 14.8463C8.16258 15.2335 7.60546 15.7903 7.21785 16.4609C6.83025 17.1315 6.62579 17.8921 6.625 18.6667V36.3333C6.62579 37.1079 6.83025 37.8685 7.21785 38.5391C7.60546 39.2097 8.16258 39.7665 8.83333 40.1538L24.2917 48.9871C24.9631 49.3747 25.7247 49.5788 26.5 49.5788C27.2753 49.5788 28.0369 49.3747 28.7083 48.9871L44.1667 40.1538C44.8374 39.7665 45.3945 39.2097 45.7821 38.5391C46.1698 37.8685 46.3742 37.1079 46.375 36.3333Z" stroke="#1E1E1E" stroke-width="4" stroke-linecap="round" stroke-linejoin="round"/>
</svg>
